<svg class="logo-offline" width="191" height="40" viewBox="0 0 191 40" xmlns="http://www.w3.org/2000/svg"><path d="M95.49 25.823h2.21v13.633h-2.21zm3.976.02v2.036h3.218v11.577h2.23V27.879h3.2v-2.036zm18.382 7.698c-.62-.136-1.532-.252-1.55-1.105-.02-.892.91-1.164 1.55-1.164.679 0 1.242.252 1.862.737l1.164-1.3c-.95-.988-2.056-1.298-3.064-1.298-1.824 0-3.568 1.066-3.568 3.005.019 1.862 1.512 2.657 3.141 2.928.66.117 1.668.408 1.668 1.358 0 .834-.931 1.105-1.668 1.066-.775-.058-1.551-.504-2.094-1.202l-1.319 1.28c.892 1.26 2.134 1.823 3.472 1.823 1.59 0 3.664-.776 3.664-3.025 0-1.92-1.59-2.792-3.258-3.103zm13.458-2.521c-1.105-1.086-2.288-1.59-3.665-1.59-3.277.02-5.08 2.443-5.1 5.12 0 2.676 1.745 5.119 5.1 5.119 1.377 0 2.696-.62 3.743-1.668l-1.202-1.3c-.912.815-1.59 1.048-2.54 1.048-1.96 0-3.006-1.474-3.006-3.161.019-2.133 1.473-3.238 2.986-3.219.834 0 1.726.213 2.501.97zm2.172-5.138v13.574h2.113V31.99c.621-.388 1.378-.679 2.076-.66 1.357.04 2.559.834 2.559 2.385v5.74h2.113v-5.74c0-2.714-1.86-4.246-4.362-4.246-.66 0-1.61.213-2.366.853v-4.44zm13.031 8.668c0-2.172 1.57-3.18 3.025-3.18 1.493 0 3.006 1.008 3.006 3.18 0 2.171-1.513 3.218-3.006 3.218-1.455 0-3.025-1.047-3.025-3.219zm8.144 0c0-2.87-2.152-5.1-5.119-5.1-2.947 0-5.139 2.23-5.139 5.1 0 2.85 2.192 5.119 5.139 5.119 2.967 0 5.12-2.269 5.12-5.12zm3.743 0c0-2.172 1.57-3.18 3.025-3.18 1.493 0 3.006 1.008 3.006 3.18 0 2.171-1.513 3.218-3.006 3.218-1.455 0-3.025-1.047-3.025-3.219zm8.144 0c0-2.87-2.152-5.1-5.12-5.1-2.947 0-5.138 2.23-5.138 5.1 0 2.85 2.191 5.119 5.139 5.119 2.967 0 5.12-2.269 5.12-5.12zm5.72 3.024c-1.183.098-1.454-.348-1.454-1.143V25.88h-2.114v10.55c0 2.268 1.241 3.296 3.568 3.044zM12.523 22.369c1.625.874 2.45 1.936 2.45 5.327v11.827h4.636V26.615c0-5.494-3.061-9.076-8.189-9.58-1.749-.157-3.213-.014-4.75.472a6.72 6.72 0 00-1.476.657l-.299.178V4.902L4.705 5c-.396.209-1.123.594-2.26 1.22C.618 7.25 0 8.493 0 11.14v28.383h4.895v-16.44l.09-.058c2.288-1.497 5.457-1.772 7.538-.656zm47.615 4.525l.017-.21c.275-3.547 3.485-5.163 6.35-5.163 2.874 0 6.11 1.614 6.425 5.16l.02.213zm14.712-6.056c-1.998-2.39-4.906-3.706-8.19-3.706h-.071c-7.368.043-11.224 5.81-11.224 11.482-.025 3.197 1.153 6.23 3.23 8.324 2.026 2.04 4.805 3.118 8.038 3.118 3.838 0 7.147-1.713 9.568-4.954l.084-.112-3.536-2.25-.071.1c-1.787 2.468-4.168 2.784-6.045 2.784-3.59 0-5.88-2.413-6.49-4.652l-.068-.247h17.118l.02-.107c.673-3.614-.19-7.178-2.363-9.78zm-44.963-5.39c-.396.208-1.124.593-2.26 1.22-1.828 1.03-2.444 2.272-2.444 4.918v17.937h4.897V15.348zm16.24 23.987v-28.21c0-2.645.618-3.887 2.449-4.92 1.133-.625 1.86-1.01 2.256-1.216l.192-.1v34.446zm-10.472 0v-28.21c0-2.645.619-3.887 2.448-4.92 1.134-.625 1.86-1.01 2.256-1.216l.192-.1v34.446zm46.393 0v-28.21c0-2.645.616-3.887 2.447-4.92a117.63 117.63 0 012.256-1.216l.192-.1v34.446z" fill="#fff"></path><path d="M26.986 13.749a16.56 16.56 0 011.592-.862c.716-.351 1.33-.655 1.788-1.151 2.246-2.432 1.675-6.167 1.65-6.325l-.063-.386-.182.346c-.009.019-1.022 1.928-2.797 3.253a21.7 21.7 0 01-.74.512c-.535.36-1.202.807-2.004 1.436-2.64 2.07-2.67 5.496-2.67 5.64v.37l.233-.287c.003-.006.908-1.111 3.193-2.546z" fill="#ffd600"></path><path d="M26.426 6.82c1.21-.758 2.07-1.35 2.627-1.95 1.75-1.895 1.283-4.4 1.26-4.505L30.244 0l-.172.329c-.006.012-.774 1.47-2.148 2.494-.147.11-.326.232-.535.373-.424.285-.958.645-1.578 1.13-2.043 1.601-2.068 4.255-2.068 4.367v.37l.233-.289c.004-.005.677-.839 2.451-1.953z" fill="#00aeef"></path></svg>