<svg width="114" height="32" viewBox="0 0 114 32" fill="none" xmlns="http://www.w3.org/2000/svg">
<path d="M54.7698 25.0383H51.2549C51.2326 25.0383 51.2326 25.0383 51.2215 25.0271L48.1959 21.3342L45.1704 25.0271C45.1593 25.0383 45.1481 25.0383 45.137 25.0383H42.3228C42.3006 25.0383 42.2894 25.0271 42.2783 25.016C42.2783 25.0049 42.2783 24.9827 42.2894 24.9715L46.7499 19.4988L42.3451 14.0818C42.3339 14.0595 42.3339 14.0484 42.3339 14.0262C42.3451 14.015 42.3562 14.0039 42.3673 14.0039H45.8823C45.8934 14.0039 45.9045 14.015 45.9157 14.0262L48.5741 17.3187L51.2771 14.0262C51.2882 14.015 51.2994 14.0039 51.3105 14.0039H54.1692C54.1803 14.0039 54.2026 14.015 54.2137 14.0262C54.2248 14.0484 54.2137 14.0595 54.2026 14.0818L50.0313 19.0984L54.8143 24.9715C54.8255 24.9827 54.8255 25.0049 54.8255 25.016C54.8032 25.0383 54.7921 25.0383 54.7698 25.0383Z" fill="#191825" fill-opacity="0.5"/>
<path d="M73.7799 15.9384C72.2226 15.9384 71.1659 16.8839 70.8544 18.519H76.1492V18.4078C76.1492 17.1063 75.1814 15.9384 73.7799 15.9384ZM78.8744 20.2098C78.8633 20.2209 78.8521 20.232 78.841 20.232H70.7988C70.9657 22.1007 72.1781 23.1686 74.147 23.1686C75.3594 23.1686 76.6497 22.757 78.4628 21.7893C78.4962 21.767 78.5296 21.8004 78.5296 21.8338V24.3032C78.5296 24.3254 78.5184 24.3365 78.5073 24.3365C76.8166 25.0484 75.1147 25.5378 73.7799 25.5378C70.3205 25.5378 67.8066 23.0128 67.8066 19.5424C67.8066 16.0719 70.3205 13.5469 73.7799 13.5469C76.9389 13.5469 78.9634 15.6714 78.9634 18.5969C78.9634 19.0752 78.8855 20.1764 78.8744 20.2098Z" fill="#191825" fill-opacity="0.5"/>
<path d="M95.2039 11.7112C94.214 11.7112 93.4131 10.9215 93.4131 9.95373C93.4131 8.95263 94.214 8.14062 95.2039 8.14062C96.1939 8.14062 96.9948 8.95263 96.9948 9.95373C96.9948 10.9215 96.1939 11.7112 95.2039 11.7112ZM93.7579 25.037C93.7245 25.037 93.7134 25.0259 93.7134 24.9925V14.036C93.7134 14.0138 93.7245 13.9915 93.7468 13.9915H96.65C96.6722 13.9915 96.6834 14.0138 96.6834 14.036V24.9925C96.6834 25.0259 96.6611 25.037 96.6389 25.037H93.7579Z" fill="#191825" fill-opacity="0.5"/>
<path d="M60.0874 23.391C59.5646 23.391 59.0307 23.3132 58.4078 23.1574L58.4189 16.1275C59.142 15.8939 59.7649 15.7938 60.3878 15.7938C62.4011 15.7938 63.747 17.2732 63.747 19.4867C63.747 21.856 62.3121 23.391 60.0874 23.391ZM60.8772 13.5469C60.0541 13.5469 59.2309 13.6915 58.3633 13.9918H55.4713C55.449 13.9918 55.4268 14.0141 55.4268 14.0363V32.0005C56.2944 31.8782 57.3622 31.5667 58.4078 30.8326V25.371C59.1197 25.4711 59.7092 25.5378 60.2765 25.5378C64.2364 25.5378 66.7948 23.1686 66.7948 19.4979C66.7948 15.994 64.3588 13.5469 60.8772 13.5469Z" fill="#191825" fill-opacity="0.5"/>
<path d="M88.4739 22.4771C87.5729 22.9554 86.7609 23.1779 86.0045 23.1779C84.2137 23.1779 83.1347 21.9098 83.1347 19.7852C83.1347 17.3381 84.5029 15.7475 86.6274 15.7475C87.217 15.7475 87.7843 15.8921 88.4739 16.2035V22.4771ZM88.4739 8.1947V13.9232C87.6285 13.6785 86.8833 13.5673 86.1269 13.5673C82.6787 13.5673 80.0869 16.159 80.0869 19.6073C80.0869 23.0332 82.3783 25.5249 85.5374 25.5249C86.6274 25.5249 87.6508 25.2468 88.8521 24.635V25.625C89.6419 25.4693 90.554 25.1578 91.455 24.5127V7.01562C90.5762 7.13798 89.5306 7.43831 88.4739 8.1947Z" fill="#191825" fill-opacity="0.5"/>
<path d="M106.749 22.4579C105.871 22.9584 105.125 23.2031 104.458 23.2031C102.534 23.2031 101.388 21.9351 101.388 19.8105C101.388 17.3967 102.745 15.7727 104.758 15.7727C105.292 15.7727 105.948 15.9841 106.749 16.4068V22.4579ZM109.73 13.8595C109.73 13.7928 109.675 13.7372 109.608 13.7372H107.261C107.194 13.7372 107.128 13.7928 107.128 13.8595V14.26H107.072C105.993 13.7817 105.059 13.5703 104.158 13.5703C100.91 13.5703 98.3623 16.2622 98.3623 19.7104C98.3623 23.192 100.643 25.5279 104.035 25.5279C104.936 25.5279 106.104 25.4612 107.194 24.2154V25.628C107.962 25.4612 108.874 25.1386 109.73 24.5157V13.8595Z" fill="#191825" fill-opacity="0.5"/>
<path d="M34.2925 22.3002H41.5783C41.467 23.1122 41.189 24.0688 40.5661 25.0365H32.9911C32.0678 25.0365 31.3003 24.3135 31.2113 23.4125C31.2113 23.4014 31.2002 23.3902 31.2002 23.368V8.99663C31.2002 8.9855 31.2113 8.97438 31.2113 8.96326C31.3003 8.05114 32.0678 7.32812 32.9911 7.32812H41.5672C41.4559 8.14013 41.1778 9.11898 40.5438 10.0867H34.2925V14.0021H40.4882C40.5104 14.0021 40.5327 14.0244 40.5327 14.0466V16.7607C40.5327 16.783 40.5104 16.8052 40.4882 16.8052H34.2925V22.3002Z" fill="#191825" fill-opacity="0.5"/>
<path d="M25.1709 25.2685C24.4479 25.2685 24.003 24.7012 24.003 24.0115C24.003 23.2774 24.5146 22.7546 25.1709 22.7546C25.8161 22.7546 26.3277 23.2662 26.3277 24.0115C26.3277 24.7568 25.8161 25.2685 25.1709 25.2685ZM25.1709 22.6211C24.4368 22.6211 23.8027 23.1773 23.8027 24.0115C23.8027 24.8013 24.37 25.4019 25.1709 25.4019C25.8939 25.4019 26.528 24.8458 26.528 24.0115C26.528 23.1773 25.905 22.6211 25.1709 22.6211Z" fill="#191825" fill-opacity="0.5"/>
<path d="M24.8486 23.9027V23.391H25.1934C25.3714 23.391 25.5716 23.4133 25.5716 23.6246C25.5716 23.8805 25.3825 23.8916 25.1712 23.8916C25.1601 23.9027 24.8486 23.9027 24.8486 23.9027ZM25.8163 23.658C25.8163 23.3243 25.6161 23.1797 25.2157 23.1797H24.5928V24.8259H24.8597V24.1252H25.1156L25.5383 24.8259H25.8497L25.3937 24.1029C25.6384 24.0807 25.8163 23.9583 25.8163 23.658Z" fill="#191825" fill-opacity="0.5"/>
<path d="M112.133 15.8159C111.41 15.8159 110.965 15.2486 110.965 14.559C110.965 13.8248 111.477 13.302 112.133 13.302C112.778 13.302 113.29 13.8137 113.29 14.559C113.29 15.3042 112.778 15.8159 112.133 15.8159ZM112.133 13.1797C111.399 13.1797 110.765 13.7359 110.765 14.5701C110.765 15.3599 111.332 15.9605 112.133 15.9605C112.856 15.9605 113.49 15.4044 113.49 14.5701C113.49 13.7247 112.856 13.1797 112.133 13.1797Z" fill="#191825" fill-opacity="0.5"/>
<path d="M111.799 14.4463V13.9457H112.144C112.322 13.9457 112.522 13.968 112.522 14.1793C112.522 14.4351 112.333 14.4463 112.122 14.4463H111.799ZM112.778 14.2127C112.778 13.879 112.578 13.7344 112.178 13.7344H111.555V15.3806H111.822V14.6799H112.077L112.5 15.3806H112.812L112.356 14.6576C112.589 14.6354 112.778 14.513 112.778 14.2127Z" fill="#191825" fill-opacity="0.5"/>
<path d="M15.7717 10.0759L15.2489 8.58534L10.755 2.58985L11.5559 2.38963L19.2867 9.07476L23.8361 7.77333C24.37 7.63985 24.9818 7.60648 25.4379 7.60648C24.0141 4.52531 21.389 1.98919 17.9407 0.765622C11.1221 -1.67039 3.61385 1.9002 1.18896 8.72994C0.432577 10.8434 0.265726 13.0236 0.57718 15.0925L11.4669 11.3106L15.7717 10.0759Z" fill="#191825" fill-opacity="0.5"/>
<path d="M25.9274 8.78516C25.5269 9.04099 24.9374 9.38582 24.359 9.57491L19.7984 10.8763L16.7617 20.6426L15.972 20.8985L16.6171 13.4458L16.2612 11.8997L11.9898 13.1233L0.688477 15.7595C1.58947 20.0976 4.65951 23.8907 9.14222 25.4813C15.972 27.9173 23.4691 24.3467 25.9051 17.517C26.9507 14.5915 26.884 11.5215 25.9274 8.78516Z" fill="#191825" fill-opacity="0.5"/>
<path d="M16.2503 11.8894L16.6063 13.4355L15.9611 20.8882L16.7509 20.6323L19.7876 10.866L24.3481 9.56459C24.9265 9.37549 25.5161 9.04179 25.9165 8.77483C25.7719 8.37439 25.6162 7.98507 25.4382 7.59576C24.971 7.59576 24.3704 7.618 23.8365 7.76261L19.287 9.06404L11.5563 2.37891L10.7554 2.57913L15.2381 8.57461L15.7609 10.0651L11.4562 11.2998L0.566406 15.0818C0.599776 15.3042 0.64427 15.5378 0.688763 15.7603L11.979 13.1018L16.2503 11.8894Z" fill="white"/>
</svg>
