<svg width="152" height="51" viewBox="0 0 152 51" fill="none" xmlns="http://www.w3.org/2000/svg">
<path d="M65.1165 21.8201C65.3295 16.781 61.9311 13.8833 56.7322 13.8833C51.1072 13.8833 46.1854 17.7931 45.0135 24.8137C43.831 32.058 47.5703 36.2981 53.5256 36.2981C59.0014 36.2981 62.8473 32.5587 64.0192 28.5424H59.3849C58.5646 30.8542 56.3913 32.2178 53.7706 32.2178C50.5959 32.2178 48.8594 29.8954 49.6051 25.3677C50.3828 20.6802 53.1634 17.9635 56.6577 17.9635C59.076 17.9635 60.5675 19.4017 60.5142 21.8201H65.1165ZM73.7208 36.3194C78.664 36.3194 82.2755 32.9529 83.0958 27.9458C83.9268 22.8534 81.3913 19.4231 76.4055 19.4231C71.4516 19.4231 67.8401 22.7789 67.0305 27.8073C66.1888 32.889 68.7244 36.3194 73.7208 36.3194ZM74.1789 32.8037C71.9417 32.8037 71.1427 30.737 71.6008 27.9245C72.0695 25.0374 73.6462 22.8854 75.9474 22.8854C78.1846 22.8854 78.9729 24.9628 78.5255 27.786C78.0461 30.6731 76.4694 32.8037 74.1789 32.8037ZM91.0236 36.2661C93.655 36.2661 95.2744 34.7427 96.1373 33.379H96.329L95.8923 35.9998H100.367L103.989 14.1816H99.4505L98.0869 22.3847H97.9484C97.5755 21.053 96.5315 19.4231 93.7935 19.4231C90.1927 19.4231 86.6984 22.2142 85.7715 27.8392C84.866 33.3151 87.2736 36.2661 91.0236 36.2661ZM93.0158 32.6546C90.7786 32.6546 89.937 30.6731 90.4164 27.8179C90.8745 24.9841 92.3553 23.0346 94.6032 23.0346C96.8085 23.0346 97.7673 24.8989 97.2879 27.8179C96.8085 30.737 95.1998 32.6546 93.0158 32.6546ZM111.792 36.3194C115.861 36.3194 118.876 34.3485 120.037 31.3123L115.893 31.0353C115.222 32.2817 113.944 32.9316 112.431 32.9316C110.108 32.9316 108.947 31.6745 109.363 29.0963L109.384 28.9792H120.527L120.73 27.7327C121.657 22.1716 118.759 19.4231 114.423 19.4231C109.608 19.4231 105.921 22.8428 105.08 27.8925C104.206 33.0807 106.752 36.3194 111.792 36.3194ZM109.895 26.1667C110.279 24.3662 112.015 22.8108 113.965 22.8108C115.925 22.8108 117.022 24.2171 116.703 26.1667H109.895ZM128.892 19.6361H124.204L127.528 27.8179L121.307 35.9998H125.994L130.106 30.3428L132.397 35.9998H137.031L133.526 27.8179L139.631 19.6361H134.975L130.937 25.357L128.892 19.6361ZM151.33 19.6361H148.24L148.89 15.7157H144.352L143.702 19.6361H141.475L140.9 23.0452H143.137L141.731 31.5679C141.156 34.764 143.073 36.3513 146.408 36.2235C147.58 36.1915 148.443 35.9571 148.954 35.7973L148.784 32.4202C148.549 32.4628 148.059 32.5694 147.633 32.5694C146.727 32.5694 146.142 32.2284 146.355 30.9713L147.676 23.0452H150.765L151.33 19.6361Z" fill="#42B4EE"/>
<path d="M44.8275 8.03166L21.8275 21.5317C11.8271 18.0315 2.82799 13.5315 7.82752 7.03145C12.8273 2.03179 22.8275 9.53189 23.8275 8.53189C23.8275 8.53189 25.328 5.53177 29.3275 0.0316646C36.328 -0.468461 41.9942 5.03166 44.8275 8.03166Z" fill="#42B4EE"/>
<path d="M0.402995 20.4998C7.903 22.8331 22.103 29.2998 18.903 36.4998C11.9033 43.9998 -2.59653 37.4998 0.402995 20.4998Z" fill="#42B4EE"/>
<path d="M29.4033 34.9998C27.0033 42.5998 16.07 45.4998 10.9033 45.9998C23.7033 55.9999 37.9033 48.1665 43.4033 42.9998C39.7367 37.1664 37.4033 39.9998 29.4033 34.9998Z" fill="#42B4EE"/>
</svg>
