<svg width="56" height="57" viewBox="0 0 56 57" fill="none" xmlns="http://www.w3.org/2000/svg">
<path d="M31.3515 31.0092H28.2461L20.7301 51.217H23.7906L31.3515 31.0092Z" fill="#A52626"/>
<path d="M32.297 37.1753L42.198 41.1358L32.297 45.0513V48.1564L45.9786 42.7109V39.5608L32.297 34.0702V37.1753Z" fill="#A52626"/>
<path d="M19.7845 45.0513L9.88324 41.1358L19.7845 37.1753V34.0702L6.05786 39.5608V42.7109L19.7845 48.1564V45.0513Z" fill="#A52626"/>
<path d="M0.358398 6.38206C0.358398 13.7678 0.358398 33.7574 0.358398 51.3592C0.358398 54.4687 2.88997 57.0003 5.9995 57.0003H50.135C53.2445 57.0003 55.7761 54.4687 55.7761 51.3592C55.7761 33.7576 55.7761 13.7664 55.7761 6.38206C55.7761 3.27254 53.2445 0.743164 50.135 0.743164H5.9995C2.88997 0.743164 0.358398 3.27254 0.358398 6.38206ZM53.5258 51.3592C53.5258 53.2293 52.0051 54.75 50.135 54.75H5.9995C4.12938 54.75 2.60868 53.2293 2.60868 51.3592V12.1726H53.5258V51.3592ZM53.5258 6.38206V9.92231H2.60868V6.38206C2.60868 4.51415 4.12938 2.99345 5.9995 2.99345H50.135C52.0051 2.99345 53.5258 4.51415 53.5258 6.38206Z" fill="#A52626"/>
<path d="M32.1718 7.86125H35.0725C35.6944 7.86125 36.1977 7.35801 36.1977 6.7361C36.1977 6.1142 35.6944 5.61096 35.0725 5.61096H32.1718C31.5499 5.61096 31.0466 6.1142 31.0466 6.7361C31.0466 7.35801 31.5499 7.86125 32.1718 7.86125Z" fill="#A52626"/>
<path d="M38.3504 7.86125H41.2511C41.873 7.86125 42.3763 7.35801 42.3763 6.7361C42.3763 6.1142 41.873 5.61096 41.2511 5.61096H38.3504C37.7285 5.61096 37.2252 6.1142 37.2252 6.7361C37.2252 7.35801 37.7285 7.86125 38.3504 7.86125Z" fill="#A52626"/>
<path d="M44.5282 7.86125H47.429C48.0509 7.86125 48.5541 7.35801 48.5541 6.7361C48.5541 6.1142 48.0509 5.61096 47.429 5.61096H44.5282C43.9063 5.61096 43.4031 6.1142 43.4031 6.7361C43.4031 7.35801 43.9063 7.86125 44.5282 7.86125Z" fill="#A52626"/>
<path d="M28.9501 25.008C31.9388 25.008 34.3714 27.4406 34.3714 30.4315C34.3714 31.0534 34.8747 31.5566 35.4966 31.5566C36.1185 31.5566 36.6217 31.0534 36.6217 30.4315C36.6217 27.4406 39.0544 25.008 42.0453 25.008C42.6672 25.008 43.1704 24.5047 43.1704 23.8828C43.1704 23.2609 42.6672 22.7577 42.0453 22.7577C39.0544 22.7577 36.6217 20.325 36.6217 17.3341C36.6217 16.7122 36.1185 16.209 35.4966 16.209C34.8747 16.209 34.3714 16.7122 34.3714 17.3341C34.3714 20.325 31.9388 22.7577 28.9501 22.7577C28.3282 22.7577 27.825 23.2609 27.825 23.8828C27.825 24.5047 28.3282 25.008 28.9501 25.008ZM35.4966 21.3315C36.1339 22.3709 37.0085 23.2455 38.0479 23.8828C37.0085 24.5201 36.1339 25.3947 35.4966 26.4342C34.8615 25.3947 33.9847 24.5201 32.9452 23.8828C33.9847 23.2455 34.8615 22.3709 35.4966 21.3315Z" fill="#A52626"/>
<path d="M41.179 19.3672C41.8822 19.3672 42.4536 19.9385 42.4536 20.6417C42.4536 21.2636 42.9568 21.7669 43.5787 21.7669C44.2006 21.7669 44.7038 21.2636 44.7038 20.6417C44.7038 19.9385 45.2774 19.3672 45.9806 19.365C45.9828 19.365 45.9828 19.365 45.985 19.365C45.9872 19.365 45.9872 19.365 45.9894 19.365C45.9916 19.365 45.9916 19.365 45.9916 19.365C45.9938 19.365 45.9938 19.365 45.9938 19.365H45.996C45.9977 19.365 45.9987 19.365 46.0004 19.365C46.0026 19.365 46.0026 19.365 46.0026 19.365H46.0048C46.0064 19.365 46.0075 19.365 46.0092 19.365C46.0114 19.365 46.0114 19.365 46.0136 19.365H46.0158C46.6201 19.3452 47.1036 18.8485 47.1036 18.242C47.1036 18.2398 47.1036 18.2398 47.1036 18.2398C47.1036 17.6179 46.6003 17.1147 45.9784 17.1147C45.2752 17.1147 44.7038 16.5433 44.7038 15.8401C44.7038 15.2182 44.2006 14.715 43.5787 14.715C42.9568 14.715 42.4536 15.2182 42.4536 15.8401C42.4536 16.5213 41.9152 17.0817 41.2405 17.1147C41.2207 17.1147 41.201 17.1147 41.1812 17.1147V17.1169C41.179 17.1169 41.179 17.1169 41.1768 17.1169C40.5571 17.1169 40.0538 17.6223 40.0538 18.242C40.0538 18.8639 40.5571 19.3672 41.179 19.3672Z" fill="#A52626"/>
</svg>
