<svg width="56" height="59" viewBox="0 0 56 59" fill="none" xmlns="http://www.w3.org/2000/svg">
<path d="M37.5505 20.1617H18.8665C17.4051 20.1617 16.0035 20.7423 14.9701 21.7757C13.9368 22.8091 13.3562 24.2106 13.3562 25.6721V34.739C13.3562 36.2004 13.9368 37.602 14.9701 38.6354C16.0035 39.6688 17.4051 40.2493 18.8665 40.2493H37.5505C39.0119 40.2493 40.4135 39.6688 41.4468 38.6354C42.4802 37.602 43.0608 36.2004 43.0608 34.739V25.6721C43.0608 24.2106 42.4802 22.8091 41.4468 21.7757C40.4135 20.7423 39.0119 20.1617 37.5505 20.1617ZM40.5475 34.739C40.545 35.5331 40.2284 36.2939 39.6669 36.8554C39.1054 37.4169 38.3445 37.7335 37.5505 37.736H18.8665C18.0724 37.7335 17.3116 37.4169 16.7501 36.8554C16.1886 36.2939 15.872 35.5331 15.8695 34.739V25.6721C15.869 25.2712 15.9496 24.8744 16.1066 24.5055L27.4213 31.7325C27.6578 31.8837 27.9326 31.964 28.2132 31.964C28.4939 31.964 28.7687 31.8837 29.0052 31.7325L40.3104 24.496C40.4686 24.8678 40.5493 25.268 40.5475 25.6721V34.739Z" fill="#C231DA"/>
<path d="M1.41566 21.5466C-0.791152 28.1896 -0.406903 35.421 2.49145 41.7927C5.38981 48.1644 10.5883 53.2059 17.0458 55.9076C23.5033 58.6094 30.7431 58.7718 37.3153 56.3625C43.8876 53.9531 49.3069 49.1498 52.4882 42.9145C54.1987 39.5321 55.2054 35.8378 55.4473 32.0551H51.4449C51.1457 36.0773 49.829 39.9574 47.6186 43.331C45.4081 46.7047 42.3765 49.4611 38.8083 51.3414C35.2401 53.2218 31.2526 54.1643 27.2201 54.0805C23.1877 53.9967 19.2428 52.8893 15.7558 50.8623C12.8876 49.2223 10.409 46.9799 8.49089 44.2898C5.02609 39.4973 3.46992 33.5865 4.12568 27.7093C4.78143 21.832 7.60212 16.4095 12.038 12.4986C13.7866 10.9653 15.7441 9.68803 17.8518 8.70496L20.0142 7.69963V10.6018C20.0145 10.7719 20.0605 10.9388 20.1475 11.085C20.2345 11.2312 20.3591 11.3514 20.5085 11.4328C20.6578 11.5143 20.8263 11.5541 20.9963 11.548C21.1663 11.542 21.3316 11.4903 21.4748 11.3985L28.5785 6.80811C28.7056 6.72102 28.8096 6.60425 28.8815 6.46791C28.9533 6.33158 28.9909 6.17978 28.9909 6.02566C28.9909 5.87155 28.9533 5.71975 28.8815 5.58342C28.8096 5.44708 28.7056 5.33031 28.5785 5.24322L21.4938 0.169157C21.3516 0.0705348 21.1852 0.0126803 21.0125 0.00185756C20.8398 -0.00896521 20.6674 0.0276562 20.5141 0.107757C20.3607 0.187857 20.2322 0.308385 20.1424 0.45629C20.0526 0.604195 20.005 0.773842 20.0047 0.946863V3.64987L19.4641 3.83007C15.2959 5.19625 11.499 7.50552 8.36864 10.5783C5.23832 13.651 2.85898 17.4044 1.41566 21.5466V21.5466Z" fill="#C231DA"/>
</svg>
