<svg width="56" height="45" viewBox="0 0 56 45" fill="none" xmlns="http://www.w3.org/2000/svg">
<path d="M26.8305 17.9993H19.7519C19.2474 17.9993 18.8385 18.4082 18.8385 18.9126V38.7784C18.8385 39.2828 19.2474 39.6918 19.7519 39.6918H26.8305C27.3349 39.6918 27.7438 39.2828 27.7438 38.7784V18.9126C27.7438 18.4082 27.3349 17.9993 26.8305 17.9993Z" fill="#9B6717"/>
<path d="M13.5861 28.6174H6.50748C6.00304 28.6174 5.59412 29.0264 5.59412 29.5308V38.7787C5.59412 39.2831 6.00304 39.692 6.50748 39.692H13.5861C14.0905 39.692 14.4995 39.2831 14.4995 38.7787V29.5308C14.4995 29.0264 14.0905 28.6174 13.5861 28.6174Z" fill="#9B6717"/>
<path d="M40.074 24.6215H32.9954C32.491 24.6215 32.082 25.0304 32.082 25.5348V38.7787C32.082 39.2831 32.491 39.692 32.9954 39.692H40.074C40.5784 39.692 40.9874 39.2831 40.9874 38.7787V25.5348C40.9874 25.0304 40.5784 24.6215 40.074 24.6215Z" fill="#9B6717"/>
<path d="M50.7195 0.000456993C49.8606 -0.000113926 49.016 0.219704 48.2664 0.638882C47.5168 1.05806 46.8873 1.66257 46.4381 2.39459C45.9889 3.12661 45.7351 3.96164 45.7009 4.8198C45.6667 5.67797 45.8533 6.53055 46.2428 7.29598L41.3852 11.3674C40.8954 10.7873 40.2802 10.326 39.5861 10.0183C38.892 9.71059 38.1371 9.56449 37.3784 9.59103C36.6196 9.61757 35.8767 9.81606 35.2059 10.1715C34.535 10.527 33.9535 11.0301 33.5054 11.643L27.9567 8.06698C27.9629 7.96583 27.9669 7.8641 27.9669 7.76146C27.9675 6.9994 27.7947 6.2472 27.4615 5.56182C27.1284 4.87643 26.6437 4.27584 26.044 3.80552C25.4444 3.3352 24.7457 3.00749 24.0007 2.8472C23.2556 2.68691 22.4839 2.69824 21.7439 2.88034C21.004 3.06244 20.3151 3.41053 19.7296 3.89826C19.144 4.38598 18.6772 5.00055 18.3643 5.69542C18.0514 6.39029 17.9008 7.14724 17.9237 7.90895C17.9467 8.67066 18.1427 9.41716 18.4969 10.0919L12.747 15.7124C11.626 15.1512 10.3359 15.0288 9.12942 15.3693C7.92294 15.7097 6.88709 16.4885 6.2249 17.5529C5.5627 18.6173 5.3219 19.8907 5.54968 21.1234C5.77746 22.3562 6.4574 23.4594 7.45625 24.2169C8.45509 24.9744 9.70083 25.3316 10.9493 25.2184C12.1978 25.1052 13.359 24.5299 14.2054 23.6051C15.0517 22.6804 15.5222 21.4729 15.5246 20.2193C15.5271 18.9657 15.0612 17.7564 14.2184 16.8284L19.6342 11.5346C20.2165 12.0467 20.9096 12.4168 21.6591 12.616C22.4085 12.8151 23.1939 12.8378 23.9536 12.6822C24.7133 12.5267 25.4266 12.1971 26.0375 11.7195C26.6483 11.2418 27.1402 10.6291 27.4744 9.92934L32.7064 13.301C32.5006 14.0596 32.4757 14.8559 32.6337 15.6259C32.7916 16.3959 33.1281 17.118 33.616 17.7343C34.1039 18.3506 34.7295 18.8438 35.4427 19.1742C36.1559 19.5047 36.9367 19.6632 37.7223 19.6369C38.5078 19.6107 39.2763 19.4005 39.9658 19.0233C40.6554 18.646 41.2468 18.1122 41.6925 17.4647C42.1382 16.8173 42.4258 16.0743 42.5321 15.2955C42.6383 14.5167 42.5604 13.7239 42.3045 12.9807L47.3547 8.74801C47.9596 9.29442 48.6883 9.68538 49.4781 9.88713C50.2678 10.0889 51.0948 10.0954 51.8876 9.90602C52.6804 9.71668 53.4152 9.33719 54.0285 8.80034C54.6418 8.26348 55.1153 7.5854 55.4079 6.82465C55.7006 6.0639 55.8036 5.24334 55.7082 4.43384C55.6128 3.62435 55.3218 2.85025 54.8602 2.17839C54.3987 1.50653 53.7806 0.957112 53.0593 0.577582C52.3379 0.198052 51.535 -0.000181395 50.7199 1.24549e-07L50.7195 0.000456993Z" fill="#9B6717"/>
<path d="M45.4132 42.2037H1.82674V5.40055C1.82674 5.15831 1.73051 4.92599 1.55922 4.7547C1.38793 4.58341 1.15561 4.48718 0.913368 4.48718C0.671128 4.48718 0.438809 4.58341 0.267519 4.7547C0.0962295 4.92599 0 5.15831 0 5.40055V43.077C0 43.5814 0.38213 44.0304 0.886538 44.0304H45.4132C45.6555 44.0304 45.8878 43.9342 46.0591 43.7629C46.2304 43.5916 46.3266 43.3593 46.3266 43.1171C46.3266 42.8748 46.2304 42.6425 46.0591 42.4712C45.8878 42.2999 45.6555 42.2037 45.4132 42.2037Z" fill="#9B6717"/>
</svg>
