<svg xmlns="http://www.w3.org/2000/svg" viewBox="0 0 2427 959" fill="none">
  <path d="M0.000399469 850.732C-0.101838 827.12 66.5862 491.963 229.991 232.893C376.614 0.694608 647.397 -99.7438 908.92 129.664C1189.12 375.517 1454.28 440.62 1679.57 421.217C1901.95 401.814 2070.75 257.939 2151.62 161.634C2326.97 -46.3788 2508.5 131.701 2388.05 424.174C2331.54 560.144 2235.9 584.556 2078.79 572.893C1914.57 560.702 1680.78 487.346 1338.67 497.364C1008.69 507.277 624.233 600.609 390.504 762.967C141.731 935.932 -0.437761 1056.53 0.000399469 850.732Z" fill="url(#paint0_linear_832_27)"/>
  <defs>
    <linearGradient id="paint0_linear_832_27" x1="2184.3" y1="1035.73" x2="160.262" y2="55.065" gradientUnits="userSpaceOnUse">
      <stop stop-color="#5D50C6"/>
      <stop offset="1" stop-color="#F85E9F"/>
    </linearGradient>
  </defs>
</svg>