<svg width="25" height="25" viewBox="0 0 25 25" fill="none" xmlns="http://www.w3.org/2000/svg">
<path d="M11.2157 17.2795C11.0845 17.2798 10.9544 17.2542 10.8331 17.204C10.7118 17.1539 10.6015 17.0804 10.5087 16.9875L6.26672 12.7445C6.17115 12.6524 6.09489 12.5421 6.0424 12.4201C5.98991 12.2981 5.96223 12.1669 5.96098 12.0342C5.95973 11.9014 5.98494 11.7697 6.03514 11.6468C6.08533 11.5238 6.15951 11.4121 6.25333 11.3182C6.34716 11.2242 6.45875 11.1499 6.58161 11.0995C6.70447 11.0491 6.83613 11.0237 6.96891 11.0248C7.10169 11.0259 7.23293 11.0534 7.35497 11.1057C7.47701 11.158 7.58741 11.2341 7.67972 11.3295L11.2147 14.8645L17.5797 8.50155C17.7672 8.31391 18.0216 8.20844 18.2869 8.20834C18.5521 8.20825 18.8066 8.31354 18.9942 8.50105C19.1819 8.68855 19.2873 8.94292 19.2874 9.20819C19.2875 9.47346 19.1822 9.72791 18.9947 9.91555L11.9227 16.9875C11.8299 17.0804 11.7197 17.1539 11.5983 17.204C11.477 17.2542 11.347 17.2798 11.2157 17.2795Z" fill="#2FAB73"/>
</svg>
